<?xml version="1.0" encoding="UTF-8"?>
<svg width="235px" height="235px" viewBox="0 0 235 235" version="1.1" xmlns="http://www.w3.org/2000/svg" xmlns:xlink="http://www.w3.org/1999/xlink" xmlns:sketch="http://www.bohemiancoding.com/sketch/ns">
    <!-- Generator: Sketch 3.4.2 (15855) - http://www.bohemiancoding.com/sketch -->
    <title>Artboard 1</title>
    <desc>Created with Sketch.</desc>
    <defs></defs>
    <g id="Page-1" stroke="none" stroke-width="1" fill="none" fill-rule="evenodd" sketch:type="MSPage">
        <g id="Artboard-1" sketch:type="MSArtboardGroup" fill="#FFFFFF">
            <path d="M234,164.9 L234,164.8 C234,164.7 234.1,164.5 234.1,164.4 L234.1,69.2 C234.1,68.7 233.9,68.3 233.6,68 L166.3,0.7 C166.1,0.5 165.9,0.4 165.7,0.3 C165.4,0.2 165.2,0.1 164.9,0.1 L69.7,0.1 C69.2,0.1 68.8,0.3 68.5,0.6 L1,67.8 C0.7,68.1 0.5,68.6 0.5,69 L0.5,164.2 C0.5,164.9 0.9,165.4 1.5,165.7 L68.1,232.3 C68.3,232.7 68.6,232.9 68.9,233.1 C69.2,233.3 69.5,233.4 69.9,233.4 L165.1,233.4 L165.1,233.4 C165.6,233.4 166.1,233.2 166.4,232.8 L233.6,165.6 C233.7,165.5 233.7,165.4 233.8,165.3 L233.8,165.3 C233.9,165.1 233.9,165 234,164.9 L234,164.9 Z M4.8,164.1 L50,118.9 L114.9,183.8 L69.6,229 L4.8,164.1 L4.8,164.1 Z M229.7,68.9 L184.5,114.1 L119.6,49.2 L164.8,4 L229.7,68.9 L229.7,68.9 Z M73.7,229.8 L117.2,186.3 L160.7,229.8 L73.7,229.8 L73.7,229.8 Z M119.7,183.8 L184.6,118.9 L229.8,164.1 L164.9,229 L119.7,183.8 L119.7,183.8 Z M4.2,73.3 L47.5,116.6 L4.2,159.9 L4.2,73.3 L4.2,73.3 Z M5,69.1 L69.9,4.2 L114.9,49.2 L50,114.1 L5,69.1 L5,69.1 Z M160.5,3.5 L117.2,46.8 L74,3.5 L160.5,3.5 L160.5,3.5 Z M117.2,51.6 L182.1,116.5 L117.2,181.4 L52.3,116.5 L117.2,51.6 L117.2,51.6 Z M230.4,159.9 L187,116.5 L230.4,73.1 L230.4,159.9 L230.4,159.9 Z" id="Shape" sketch:type="MSShapeGroup"></path>
        </g>
    </g>
</svg>