<?xml version="1.0" encoding="utf-8"?>
<!-- Generator: Adobe Illustrator 17.0.0, SVG Export Plug-In . SVG Version: 6.00 Build 0)  -->
<!DOCTYPE svg PUBLIC "-//W3C//DTD SVG 1.1//EN" "http://www.w3.org/Graphics/SVG/1.1/DTD/svg11.dtd">
<svg version="1.1" id="Layer_1" xmlns="http://www.w3.org/2000/svg" xmlns:xlink="http://www.w3.org/1999/xlink" x="0px" y="0px"
	 width="565.398px" height="331.151px" viewBox="0 0 565.398 331.151" enable-background="new 0 0 565.398 331.151"
	 xml:space="preserve">
<path fill="#262626" d="M259.026,261.023c-24.091,23.588-57.068,38.138-93.449,38.138c-73.778,0-133.587-59.81-133.587-133.585
	c0-73.776,59.809-133.585,133.587-133.585c36.381,0,69.358,14.549,93.449,38.138l22.621-22.62
	c-29.881-29.377-70.855-47.508-116.07-47.508C74.131,0.001,0,74.131,0,165.576c0,91.443,74.131,165.575,165.577,165.575
	c45.215,0,86.189-18.13,116.07-47.508L259.026,261.023z"/>
<polygon fill="#262626" points="565.411,0 520.157,0 377.167,142.99 377.158,142.981 354.531,165.608 354.54,165.617 
	354.531,165.626 377.158,188.253 377.167,188.244 520.074,331.151 565.328,331.151 399.794,165.617 "/>
</svg>
